HIERARCHY
ROOT Hips
{
	OFFSET 0.00000 0.00000 0.00000
	CHANNELS 6 Xposition Yposition Zposition Zrotation Yrotation Xrotation 
	JOINT LHipJoint
	{
		OFFSET 0 0 0
		CHANNELS 3 Zrotation Yrotation Xrotation
		JOINT LeftUpLeg
		{
			OFFSET 1.60223 -1.58443 0.78595
			CHANNELS 3 Zrotation Yrotation Xrotation
			JOINT LeftLeg
			{
				OFFSET 2.21690 -6.09089 0.00000
				CHANNELS 3 Zrotation Yrotation Xrotation
				JOINT LeftFoot
				{
					OFFSET 2.34805 -6.45122 0.00000
					CHANNELS 3 Zrotation Yrotation Xrotation
					JOINT LeftToeBase
					{
						OFFSET 0.35452 -0.97402 1.38549
						CHANNELS 3 Zrotation Yrotation Xrotation
						End Site
						{
							OFFSET 0.00000 -0.00000 0.82816
						}
					}
				}
			}
		}
	}
	JOINT RHipJoint
	{
		OFFSET 0 0 0
		CHANNELS 3 Zrotation Yrotation Xrotation
		JOINT RightUpLeg
		{
			OFFSET -1.56524 -1.58443 0.78595
			CHANNELS 3 Zrotation Yrotation Xrotation
			JOINT RightLeg
			{
				OFFSET -2.15558 -5.92241 0.00000
				CHANNELS 3 Zrotation Yrotation Xrotation
				JOINT RightFoot
				{
					OFFSET -2.35077 -6.45870 0.00000
					CHANNELS 3 Zrotation Yrotation Xrotation
					JOINT RightToeBase
					{
						OFFSET -0.26910 -0.73935 1.33295
						CHANNELS 3 Zrotation Yrotation Xrotation
						End Site
						{
							OFFSET -0.00000 -0.00000 0.75962
						}
					}
				}
			}
		}
	}
	JOINT LowerBack
	{
		OFFSET 0 0 0
		CHANNELS 3 Zrotation Yrotation Xrotation
		JOINT Spine
		{
			OFFSET -0.05489 1.97104 -0.02993
			CHANNELS 3 Zrotation Yrotation Xrotation
			JOINT Spine1
			{
				OFFSET -0.00702 1.94230 0.13626
				CHANNELS 3 Zrotation Yrotation Xrotation
				JOINT Neck
				{
					OFFSET 0 0 0
					CHANNELS 3 Zrotation Yrotation Xrotation
					JOINT Neck1
					{
						OFFSET -0.07858 1.62869 -0.02510
						CHANNELS 3 Zrotation Yrotation Xrotation
						JOINT Head
						{
							OFFSET 0.13978 1.59213 -0.29859
							CHANNELS 3 Zrotation Yrotation Xrotation
							End Site
							{
								OFFSET 0.05353 1.64420 -0.10000
							}
						}
					}
				}
				JOINT LeftShoulder
				{
					OFFSET 0 0 0
					CHANNELS 3 Zrotation Yrotation Xrotation
					JOINT LeftArm
					{
						OFFSET 3.48263 1.15278 0.52941
						CHANNELS 3 Zrotation Yrotation Xrotation
						JOINT LeftForeArm
						{
							OFFSET 4.59207 -0.00000 -0.00000
							CHANNELS 3 Zrotation Yrotation Xrotation
							JOINT LeftHand
							{
								OFFSET 2.98109 -0.00000 -0.00000
								CHANNELS 3 Zrotation Yrotation Xrotation
								JOINT LeftFingerBase
								{
									OFFSET 0 0 0
									CHANNELS 3 Zrotation Yrotation Xrotation
									JOINT LeftHandIndex1
									{
										OFFSET 0.48020 -0.00000 -0.00000
										CHANNELS 3 Zrotation Yrotation Xrotation
										End Site
										{
											OFFSET 0.38715 -0.00000 -0.00000
										}
									}
								}
								JOINT LThumb
								{
									OFFSET 0 0 0
									CHANNELS 3 Zrotation Yrotation Xrotation
									End Site
									{
										OFFSET 0.39306 -0.00000 0.39306
									}
								}
							}
						}
					}
				}
				JOINT RightShoulder
				{
					OFFSET 0 0 0
					CHANNELS 3 Zrotation Yrotation Xrotation
					JOINT RightArm
					{
						OFFSET -3.52496 1.12722 0.24548
						CHANNELS 3 Zrotation Yrotation Xrotation
						JOINT RightForeArm
						{
							OFFSET -4.76508 -0.00000 -0.00000
							CHANNELS 3 Zrotation Yrotation Xrotation
							JOINT RightHand
							{
								OFFSET -2.78902 -0.00000 -0.00000
								CHANNELS 3 Zrotation Yrotation Xrotation
								JOINT RightFingerBase
								{
									OFFSET 0 0 0
									CHANNELS 3 Zrotation Yrotation Xrotation
									JOINT RightHandIndex1
									{
										OFFSET -0.72130 -0.00000 -0.00000
										CHANNELS 3 Zrotation Yrotation Xrotation
										End Site
										{
											OFFSET -0.58153 -0.00000 -0.00000
										}
									}
								}
								JOINT RThumb
								{
									OFFSET 0 0 0
									CHANNELS 3 Zrotation Yrotation Xrotation
									End Site
									{
										OFFSET -0.59041 -0.00000 0.59041
									}
								}
							}
						}
					}
				}
			}
		}
	}
}
MOTION
Frames: 12
Frame Time: .0083333
21.1485 15.7897 0.2956 0 0 0 0 0 0 -21 0 0 0 0 0 0 0 0 0 0 0 0 0 0 21 0 0 0 0 0 0 0 0 0 0 0 0 0 0 0 0 0 0 0 0 0 0 -16 0 0 21 0 0 11 0 0 0 -8 0 0 0 0 0 0 0 0 0 0 0 0 0 0 0 0 0 0 0 0 8 0 0 0 0 0 0 0 0 0 0 0 0 0 0 0 0 0
21.1485 15.7897 0.2956 138.6740 -84.8398 -134.4830 0.0000 0.0000 0.0000 -32.1412 7.8472 -4.2717 1.2450 7.0748 19.9371 2.7569 -7.4611 -30.0364 0.8762 5.9677 16.6907 0.0000 0.0000 0.0000 19.6635 5.7281 -29.6809 -2.2471 -9.3628 26.9370 -0.5090 -5.4102 -16.5413 -1.4210 7.5386 -21.3211 -0.6222 -0.1495 4.4053 -3.1884 -0.5777 -4.9878 -2.9359 -0.3982 -7.7332 -11.1286 -2.4276 -5.9051 16.2758 -4.1157 9.6497 6.7273 -1.7106 4.3868 -0.0000 0.0000 0.0000 -96.7940 11.4464 5.0063 17.6780 -27.7428 -4.3983 -0.0000 -0.0000 21.4577 31.9767 40.0670 21.8929 -7.1250 0.0000 -0.0000 -6.8652 74.6449 -4.8076 -0.0000 0.0000 0.0000 101.5497 -5.6661 0.4112 -14.3582 23.2444 -2.9680 0.0000 0.0000 9.8802 10.7171 38.6778 6.7454 7.1250 -0.0000 -0.0000 23.1673 6.5282 27.9138
21.0289 15.7863 0.2891 147.1820 -84.6421 -142.8780 0.0000 0.0000 0.0000 -31.7365 7.5525 -3.8662 1.2706 7.1445 20.1441 2.8920 -6.7077 -30.8721 0.7962 5.6956 15.9037 0.0000 0.0000 0.0000 20.3334 5.9214 -29.2719 -2.2550 -9.3781 26.9854 -0.5545 -4.9479 -16.7426 -1.5422 7.8393 -22.2270 -0.4809 -0.2360 4.1779 -2.8407 -0.6575 -5.1633 -2.6406 -0.4348 -7.7881 -11.3493 -2.2491 -6.0971 16.1391 -3.8368 9.8949 6.7422 -1.5741 4.4535 0.0000 0.0000 0.0000 -96.9962 11.6050 5.1748 17.8178 -27.9233 -4.4636 -0.0000 -0.0000 21.1785 31.4830 40.0610 21.5113 -7.1250 0.0000 -0.0000 -7.6813 74.4621 -5.3505 0.0000 0.0000 0.0000 101.2816 -5.8104 0.6560 -14.4702 23.4029 -3.0124 0.0000 0.0000 9.4859 10.3706 38.6284 6.5174 7.1250 -0.0000 -0.0000 23.0038 6.4864 27.6658
20.9061 15.7852 0.2831 155.6830 -84.3293 -151.2980 0.0000 0.0000 0.0000 -31.3074 7.1600 -3.3744 1.2973 7.2161 20.3572 3.0385 -5.7705 -31.8011 0.7126 5.3950 15.0388 0.0000 0.0000 0.0000 21.1011 5.9314 -28.8311 -2.2523 -9.3729 26.9689 -0.6033 -4.2478 -16.8333 -1.6306 8.0500 -22.8662 -0.2760 -0.2831 3.9128 -2.4740 -0.6747 -5.2729 -2.3679 -0.4422 -7.7472 -11.2441 -2.0900 -6.1960 15.8362 -3.5856 9.9602 6.6400 -1.4539 4.4467 0.0000 -0.0000 0.0000 -97.1862 11.6468 5.4178 17.9256 -28.0619 -4.5142 -0.0000 -0.0000 20.8638 31.3369 40.0305 21.3871 -7.1250 0.0000 -0.0000 -7.8796 74.3801 -5.4752 0.0000 -0.0000 0.0000 100.9750 -5.8351 0.9379 -14.5608 23.5307 -3.0484 0.0000 0.0000 9.0036 10.2680 38.5247 6.4376 7.1250 -0.0000 -0.0000 22.9575 6.3906 27.5656
20.7871 15.7839 0.2739 163.2480 -83.9314 -158.7560 0.0000 0.0000 0.0000 -30.8538 6.7823 -2.9151 1.3243 7.2880 20.5715 3.1757 -4.8765 -32.6845 0.6419 5.1255 14.2669 0.0000 0.0000 0.0000 21.9419 5.7136 -28.5335 -2.2505 -9.3695 26.9580 -0.6441 -3.3207 -16.7270 -1.7785 8.3885 -23.9005 -0.1065 -0.2801 3.7315 -2.0967 -0.6329 -5.4389 -2.0712 -0.4200 -7.8137 -11.1864 -1.9533 -6.3599 15.5489 -3.3819 10.2334 6.5520 -1.3540 4.5219 -0.0000 0.0000 0.0000 -97.3562 11.6863 5.7318 18.0311 -28.1969 -4.5639 -0.0000 -0.0000 20.4818 31.6592 40.2318 21.7159 -7.1250 0.0000 -0.0000 -7.6324 74.6922 -5.3539 -0.0000 0.0000 0.0000 100.7033 -5.8525 0.9098 -14.6288 23.6264 -3.0756 0.0000 0.0000 8.6071 10.3446 38.4377 6.4740 7.1250 -0.0000 -0.0000 22.9962 6.3080 27.5909
20.6719 15.7827 0.2603 169.2990 -83.4875 -164.6720 0.0000 0.0000 0.0000 -30.4343 6.3293 -2.4505 1.3508 7.3576 20.7792 3.2954 -4.0183 -33.4783 0.5875 4.9077 13.6454 0.0000 0.0000 0.0000 22.7645 5.3836 -28.3218 -2.2437 -9.3562 26.9161 -0.6873 -2.4259 -16.7234 -1.7672 8.3633 -23.8232 -0.0569 -0.3168 3.6041 -1.6668 -0.6546 -5.6632 -1.6453 -0.4219 -7.9753 -11.1534 -1.7643 -6.5293 15.1987 -3.1141 10.6837 6.4554 -1.2257 4.6423 -0.0000 -0.0000 0.0000 -97.6203 11.6870 5.8625 18.1137 -28.3025 -4.6030 -0.0000 -0.0000 20.1757 31.9813 40.4040 22.0346 -7.1250 0.0000 -0.0000 -7.3397 74.9767 -5.1927 -0.0000 -0.0000 0.0000 100.3140 -5.9155 0.9203 -14.6009 23.5872 -3.0645 0.0000 0.0000 8.3066 10.3371 38.5154 6.4802 7.1250 -0.0000 -0.0000 22.9907 6.3809 27.6093
20.5538 15.7826 0.2462 173.8590 -82.9628 -169.0200 0.0000 0.0000 0.0000 -30.1633 5.6293 -1.9559 1.3758 7.4226 20.9736 3.4060 -3.0025 -34.2681 0.5104 4.5795 12.7129 0.0000 0.0000 0.0000 23.4626 5.1505 -28.1411 -2.2331 -9.3356 26.8509 -0.7277 -1.6257 -16.7813 -1.7030 8.2179 -23.3780 -0.0947 -0.3364 3.3029 -1.2335 -0.6598 -5.8701 -1.1690 -0.4105 -8.0151 -11.1188 -1.5711 -6.6933 14.7994 -2.8215 11.0523 6.3429 -1.0895 4.7350 0.0000 0.0000 0.0000 -97.9129 11.5937 5.9876 18.1669 -28.3703 -4.6283 -0.0000 -0.0000 19.8999 32.2527 40.4063 22.2460 -7.1250 0.0000 -0.0000 -6.8793 75.0772 -4.8810 0.0000 0.0000 0.0000 99.8128 -5.9267 1.0579 -14.5168 23.4686 -3.0309 0.0000 0.0000 8.1725 10.1832 38.5108 6.3818 7.1250 -0.0000 -0.0000 22.9174 6.3789 27.5045
20.4289 15.7842 0.2289 177.4240 -82.4915 -172.4140 0.0000 0.0000 0.0000 -29.9163 4.9340 -1.3918 1.4048 7.4973 21.1973 3.4976 -2.0260 -34.9692 0.3999 4.0603 11.2465 0.0000 0.0000 0.0000 24.0910 4.9508 -27.8313 -2.2180 -9.3062 26.7580 -0.7656 -0.9395 -16.8962 -1.7333 8.2869 -23.5888 -0.1953 -0.2931 2.8859 -0.8439 -0.5872 -6.0270 -0.7123 -0.3582 -7.9324 -11.0709 -1.4519 -6.7273 14.4613 -2.6380 11.2897 6.2390 -1.0109 4.7827 0.0000 -0.0000 0.0000 -98.0904 11.4971 6.3566 18.2761 -28.5092 -4.6803 -0.0000 -0.0000 19.5738 32.3802 40.3571 22.3247 -7.1250 0.0000 -0.0000 -6.5890 75.0751 -4.6743 0.0000 -0.0000 0.0000 99.3775 -5.8735 0.8976 -14.4281 23.3433 -2.9956 0.0000 0.0000 8.3487 10.0466 38.4910 6.2924 7.1250 -0.0000 -0.0000 22.8526 6.3625 27.4069
20.3006 15.7880 0.2061 180.4510 -82.1206 -175.4110 0.0000 0.0000 0.0000 -29.6462 4.1912 -0.6365 1.4426 7.5930 21.4846 3.5721 -1.0656 -35.5971 0.2950 3.4928 9.6539 0.0000 0.0000 0.0000 24.7050 4.6861 -27.3284 -2.2005 -9.2717 26.6491 -0.7975 -0.3525 -17.0080 -1.8058 8.4493 -24.0873 -0.3694 -0.2872 2.5793 -0.4272 -0.5683 -6.1614 -0.1806 -0.3265 -7.8912 -11.0665 -1.3298 -6.7427 14.1366 -2.4599 11.6292 6.1490 -0.9376 4.8602 0.0000 -0.0000 0.0000 -98.2905 11.4233 6.6739 18.4183 -28.6895 -4.7484 -0.0000 -0.0000 19.2372 32.5209 40.2287 22.3807 -7.1250 0.0000 -0.0000 -6.1638 74.9998 -4.3623 0.0000 -0.0000 0.0000 98.9483 -5.8410 0.5851 -14.3452 23.2261 -2.9629 0.0000 0.0000 8.6801 10.1231 38.6082 6.3571 7.1250 -0.0000 -0.0000 22.8864 6.4712 27.4937
20.1754 15.7913 0.1823 182.7660 -81.6449 -177.6860 0.0000 0.0000 0.0000 -29.4849 3.2912 0.1018 1.4937 7.7205 21.8684 3.6476 -0.0688 -36.2585 0.2129 2.9703 8.1962 0.0000 0.0000 0.0000 25.2447 4.4547 -26.8457 -2.1828 -9.2369 26.5393 -0.8135 0.3327 -16.9385 -1.8188 8.4779 -24.1754 -0.6158 -0.2686 2.2934 -0.0091 -0.5369 -6.2812 0.3918 -0.2842 -7.8472 -11.1079 -1.2150 -6.9556 13.8594 -2.2901 12.1336 6.0865 -0.8613 5.0248 -0.0000 0.0000 0.0000 -98.4850 11.2407 6.9898 18.5324 -28.8335 -4.8032 -0.0000 -0.0000 18.7614 32.8760 40.0459 22.5801 -7.1250 0.0000 -0.0000 -5.2956 74.9471 -3.7410 -0.0000 0.0000 0.0000 98.5217 -5.7314 0.2204 -14.2508 23.0921 -2.9258 0.0000 0.0000 8.9300 10.2982 38.7537 6.4888 7.1250 -0.0000 -0.0000 22.9664 6.6050 27.6550
20.0534 15.7925 0.1580 184.5040 -81.0460 -179.3590 0.0000 0.0000 0.0000 -29.2778 2.8659 0.4933 1.5686 7.9029 22.4194 3.6962 0.4269 -36.6506 0.1553 2.5390 6.9978 0.0000 0.0000 0.0000 25.7599 4.1300 -26.4518 -2.1674 -9.2064 26.4432 -0.8323 1.2192 -16.8695 -1.8124 8.4639 -24.1322 -0.9253 -0.2012 1.9824 0.4049 -0.4436 -6.3749 0.9894 -0.2080 -7.7632 -11.0503 -1.1061 -7.2143 13.4862 -2.1137 12.5877 5.9751 -0.7825 5.1812 0.0000 0.0000 0.0000 -98.6817 11.0486 7.3579 18.7531 -29.1108 -4.9102 -0.0000 -0.0000 18.1628 33.2383 40.0665 22.8712 -7.1250 0.0000 -0.0000 -4.6877 75.0978 -3.3261 0.0000 0.0000 0.0000 98.0920 -5.5135 -0.1939 -14.1198 22.9057 -2.8746 0.0000 0.0000 9.0444 10.1286 38.7563 6.3810 7.1250 -0.0000 -0.0000 22.8856 6.6102 27.5421
19.9322 15.7933 0.1311 185.8770 -80.4545 -180.6460 0.0000 0.0000 0.0000 -28.9231 3.0664 0.4820 1.6723 8.1474 23.1626 3.6914 0.3360 -36.5987 0.0983 2.0220 5.5664 0.0000 0.0000 0.0000 26.2727 3.6347 -26.1427 -2.1562 -9.1842 26.3733 -0.8856 2.1801 -17.1812 -1.7483 8.3208 -23.6928 -1.2747 -0.1481 1.6163 0.8401 -0.3704 -6.4619 1.6335 -0.1396 -7.6427 -10.9754 -0.9672 -7.3438 13.0284 -1.8806 12.9021 5.8335 -0.6860 5.2662 0.0000 -0.0000 0.0000 -98.8570 10.8026 7.6713 18.9355 -29.3385 -4.9992 -0.0000 -0.0000 17.7479 33.0469 40.1144 22.7421 -7.1250 0.0000 -0.0000 -5.0897 75.0764 -3.6094 0.0000 -0.0000 0.0000 97.6197 -5.2387 -0.5317 -13.9680 22.6890 -2.8158 0.0000 0.0000 9.0239 9.7320 38.6527 6.1144 7.1250 -0.0000 -0.0000 22.6987 6.5198 27.2454
